<?xml version="1.0" encoding="UTF-8"?>
<svg id="Capa_2" data-name="Capa 2" xmlns="http://www.w3.org/2000/svg" viewBox="0 0 956.38 361.42">
  <defs>
    <style>
      .cls-1 {
        fill: #18181b;
      }

      .cls-2 {
        fill: #fff;
      }

      .cls-3 {
        fill: #feed37;
      }

      .cls-4 {
        fill: #eb9d00;
      }

      .cls-5 {
        fill: #ffeb33;
      }

      .cls-6 {
        fill: #ec9d04;
      }

      .cls-7 {
        fill: #fbca01;
      }

      .cls-8 {
        fill: #ea9f00;
      }
    </style>
  </defs>
  <g id="Capa_1-2" data-name="Capa 1">
    <g>
      <path class="cls-1" d="m0,291.48v-53.48L158.97,10.49h79.24v221.68h42.78v59.31h-42.78v69.03h-68.06v-69.03H0ZM174.53,83.41l-99.66,148.76h99.66V83.41Z"/>
      <path class="cls-1" d="m675.39,292.39v-53.48L834.36,11.39h79.24v221.68h42.78v59.31h-42.78v69.03h-68.06v-69.03h-170.15Zm174.53-208.07l-99.66,148.76h99.66V84.32Z"/>
      <g>
        <path class="cls-6" d="m577.82,33.16c83.91,49.45,111.95,157.39,62.5,241.3-49.45,83.91-157.22,110.69-241.13,61.23"/>
        <path class="cls-7" d="m624.31,176.35c0,82.55-66.91,149.46-149.45,149.46s-149.45-66.91-149.45-149.46S392.32,26.9,474.86,26.9s149.45,66.91,149.45,149.45Z"/>
        <path class="cls-4" d="m554.46,49.84c-72.48-39.48-162.74-13.59-202.22,58.9-39.48,72.48-13.32,163.49,59.16,202.97l-26.06-4.26-67.53-79.06,3.84-95.53,57.65-91.13,99.92-25.25,57.16,14.27,18.08,19.09Z"/>
        <path class="cls-3" d="m474.86,0c-97.39,0-176.35,78.96-176.35,176.35s78.96,176.36,176.35,176.36,176.35-78.96,176.35-176.36S572.25,0,474.86,0Zm0,325.81c-82.54,0-149.45-66.91-149.45-149.46S392.32,26.9,474.86,26.9s149.45,66.91,149.45,149.45-66.91,149.46-149.45,149.46Z"/>
        <path class="cls-2" d="m539.86,68.35h0c0-14.33-11.61-25.94-25.94-25.94h0c14.33,0,25.94-11.61,25.94-25.94h0c0,14.33,11.61,25.94,25.94,25.94h0c-14.33,0-25.94,11.61-25.94,25.94Z"/>
        <path class="cls-2" d="m570.77,78.44h0c0-7.31-5.93-13.24-13.24-13.24h0c7.31,0,13.24-5.93,13.24-13.24h0c0,7.31,5.93,13.24,13.24,13.24h0c-7.31,0-13.24,5.93-13.24,13.24Z"/>
        <g>
          <path class="cls-8" d="m526.8,223.54c-3.44,5.91-8.51,10.78-15.19,14.61-6.69,3.83-14.58,6.07-23.67,6.72v15.78h-12.47v-15.97c-12.99-1.17-23.44-5.1-31.36-11.78-7.92-6.69-12.01-15.74-12.27-27.17h29.22c.78,9.35,5.58,15,14.41,16.95v-37.2c-9.35-2.34-16.88-4.67-22.59-7.01-5.72-2.34-10.65-6.1-14.8-11.3-4.16-5.19-6.23-12.27-6.23-21.23,0-11.3,4.06-20.52,12.17-27.66,8.11-7.14,18.6-11.23,31.46-12.27v-15.78h12.47v15.78c12.47,1.04,22.43,4.81,29.9,11.3,7.47,6.5,11.65,15.46,12.56,26.88h-29.41c-.39-3.77-1.72-7.04-3.99-9.84-2.27-2.79-5.29-4.77-9.06-5.94v36.81c9.74,2.47,17.43,4.84,23.08,7.11,5.65,2.27,10.55,5.97,14.71,11.1,4.15,5.13,6.23,12.17,6.23,21.13,0,6.75-1.72,13.08-5.16,18.99Zm-62.62-68.56c2.6,2.66,6.36,4.84,11.3,6.53v-33.7c-4.67.65-8.38,2.4-11.1,5.26-2.73,2.86-4.09,6.69-4.09,11.49,0,4.28,1.3,7.76,3.89,10.42Zm35.35,62.04c2.79-3.12,4.19-6.88,4.19-11.3s-1.36-7.72-4.09-10.32c-2.73-2.6-6.62-4.74-11.69-6.43v34.09c4.93-.91,8.79-2.92,11.59-6.04Z"/>
          <path class="cls-5" d="m522.9,220.07c-3.44,5.91-8.51,10.78-15.19,14.61-6.69,3.83-14.58,6.07-23.67,6.72v15.78h-12.47v-15.97c-12.99-1.17-23.44-5.1-31.36-11.78-7.92-6.69-12.01-15.74-12.27-27.17h29.22c.78,9.35,5.58,15,14.41,16.95v-37.2c-9.35-2.34-16.88-4.67-22.59-7.01-5.72-2.34-10.65-6.1-14.8-11.3-4.16-5.19-6.23-12.27-6.23-21.23,0-11.3,4.06-20.52,12.17-27.66,8.11-7.14,18.6-11.23,31.46-12.27v-15.78h12.47v15.78c12.47,1.04,22.43,4.81,29.9,11.3,7.47,6.5,11.65,15.46,12.56,26.88h-29.41c-.39-3.77-1.72-7.04-3.99-9.84-2.27-2.79-5.29-4.77-9.06-5.94v36.81c9.74,2.47,17.43,4.84,23.08,7.11,5.65,2.27,10.55,5.97,14.71,11.1,4.15,5.13,6.23,12.17,6.23,21.13,0,6.75-1.72,13.08-5.16,18.99Zm-62.62-68.56c2.6,2.66,6.36,4.84,11.3,6.53v-33.7c-4.67.65-8.38,2.4-11.1,5.26-2.73,2.86-4.09,6.69-4.09,11.49,0,4.28,1.3,7.76,3.89,10.42Zm35.35,62.04c2.79-3.12,4.19-6.88,4.19-11.3s-1.36-7.72-4.09-10.32c-2.73-2.6-6.62-4.74-11.69-6.43v34.09c4.93-.91,8.79-2.92,11.59-6.04Z"/>
          <path class="cls-5" d="m522.9,220.07c-3.44,5.91-8.51,10.78-15.19,14.61-6.69,3.83-14.58,6.07-23.67,6.72v15.78h-12.47v-15.97c-12.99-1.17-23.44-5.1-31.36-11.78-7.92-6.69-12.01-15.74-12.27-27.17h29.22c.78,9.35,5.58,15,14.41,16.95v-37.2c-9.35-2.34-16.88-4.67-22.59-7.01-5.72-2.34-10.65-6.1-14.8-11.3-4.16-5.19-6.23-12.27-6.23-21.23,0-11.3,4.06-20.52,12.17-27.66,8.11-7.14,18.6-11.23,31.46-12.27v-15.78h12.47v15.78c12.47,1.04,22.43,4.81,29.9,11.3,7.47,6.5,11.65,15.46,12.56,26.88h-29.41c-.39-3.77-1.72-7.04-3.99-9.84-2.27-2.79-5.29-4.77-9.06-5.94v36.81c9.74,2.47,17.43,4.84,23.08,7.11,5.65,2.27,10.55,5.97,14.71,11.1,4.15,5.13,6.23,12.17,6.23,21.13,0,6.75-1.72,13.08-5.16,18.99Zm-62.62-68.56c2.6,2.66,6.36,4.84,11.3,6.53v-33.7c-4.67.65-8.38,2.4-11.1,5.26-2.73,2.86-4.09,6.69-4.09,11.49,0,4.28,1.3,7.76,3.89,10.42Zm35.35,62.04c2.79-3.12,4.19-6.88,4.19-11.3s-1.36-7.72-4.09-10.32c-2.73-2.6-6.62-4.74-11.69-6.43v34.09c4.93-.91,8.79-2.92,11.59-6.04Z"/>
        </g>
      </g>
    </g>
  </g>
</svg>